<svg viewBox="0 0 35 35" shape-rendering="crispEdges" xmlns="http://www.w3.org/2000/svg"><style>@keyframes pop{0%,100%{opacity:0}18%{opacity:1}36%{opacity:0}}@keyframes keep{0%,100%{opacity:1}50%{opacity:.72}}.a00{animation:pop 3s linear 0.00s infinite}.a01{animation:pop 3s linear -0.38s infinite}.a02{animation:pop 3s linear -0.75s infinite}.a03{animation:pop 3s linear -1.13s infinite}.a04{animation:pop 3s linear -1.50s infinite}.a05{animation:pop 3s linear -1.88s infinite}.a06{animation:pop 3s linear -2.25s infinite}.a07{animation:pop 3s linear -2.63s infinite}.a10{animation:keep 4s ease-in-out 0.00s infinite}.a11{animation:keep 4s ease-in-out -0.50s infinite}.a12{animation:keep 4s ease-in-out -1.00s infinite}.a13{animation:keep 4s ease-in-out -1.50s infinite}.a14{animation:keep 4s ease-in-out -2.00s infinite}.a15{animation:keep 4s ease-in-out -2.50s infinite}.a16{animation:keep 4s ease-in-out -3.00s infinite}.a17{animation:keep 4s ease-in-out -3.50s infinite}</style><rect width="35" height="35" fill="#0a0a0a"/><g fill="#be8b02"><rect x="13" y="5" width="1" height="1" class="a16"/><rect x="14" y="5" width="1" height="1" class="a15"/><rect x="23" y="6" width="1" height="1" class="a15"/><rect x="9" y="8" width="1" height="1" class="a15"/><rect x="27" y="9" width="1" height="1" class="a16"/><rect x="27" y="10" width="1" height="1" class="a15"/><rect x="6" y="11" width="1" height="1" class="a15"/><rect x="29" y="14" width="1" height="1" class="a15"/><rect x="5" y="16" width="1" height="1" class="a15"/><rect x="5" y="21" width="1" height="1" class="a16"/><rect x="6" y="21" width="1" height="1" class="a15"/><rect x="29" y="21" width="1" height="1" class="a16"/><rect x="8" y="25" width="1" height="1" class="a15"/><rect x="26" y="25" width="1" height="1" class="a15"/><rect x="8" y="26" width="1" height="1" class="a16"/><rect x="12" y="28" width="2" height="1" class="a15"/><rect x="22" y="28" width="1" height="1" class="a15"/><rect x="17" y="29" width="1" height="1" class="a15"/></g><g fill="#d2a931"><rect x="15" y="5" width="1" height="1" class="a15"/><rect x="19" y="5" width="1" height="1" class="a15"/><rect x="9" y="7" width="1" height="1" class="a16"/><rect x="10" y="7" width="1" height="1" class="a15"/><rect x="23" y="7" width="2" height="1" class="a15"/><rect x="27" y="11" width="1" height="1" class="a15"/><rect x="5" y="15" width="1" height="1" class="a15"/><rect x="29" y="15" width="1" height="1" class="a15"/><rect x="29" y="17" width="1" height="1" class="a15"/><rect x="5" y="20" width="1" height="1" class="a15"/><rect x="28" y="21" width="1" height="1" class="a15"/><rect x="28" y="22" width="1" height="1" class="a15"/><rect x="7" y="25" width="1" height="1" class="a16"/><rect x="25" y="26" width="1" height="1" class="a15"/><rect x="26" y="26" width="1" height="1" class="a16"/><rect x="11" y="28" width="1" height="1" class="a15"/><rect x="21" y="28" width="1" height="1" class="a15"/><rect x="16" y="29" width="1" height="1" class="a15"/><rect x="21" y="29" width="1" height="1" class="a16"/></g><g fill="#c49512"><rect x="16" y="5" width="1" height="1" class="a15"/><rect x="20" y="5" width="1" height="1" class="a15"/><rect x="11" y="6" width="1" height="1" class="a15"/><rect x="25" y="7" width="1" height="1" class="a16"/><rect x="25" y="8" width="1" height="1" class="a15"/><rect x="7" y="10" width="1" height="1" class="a15"/><rect x="28" y="11" width="1" height="1" class="a15"/><rect x="5" y="14" width="1" height="1" class="a15"/><rect x="29" y="16" width="1" height="1" class="a15"/><rect x="29" y="18" width="1" height="1" class="a15"/><rect x="5" y="19" width="1" height="1" class="a15"/><rect x="28" y="23" width="1" height="1" class="a15"/><rect x="7" y="24" width="1" height="1" class="a15"/><rect x="10" y="27" width="2" height="1" class="a15"/><rect x="24" y="27" width="1" height="1" class="a15"/><rect x="25" y="27" width="1" height="1" class="a16"/><rect x="15" y="29" width="1" height="1" class="a15"/><rect x="20" y="29" width="1" height="1" class="a15"/></g><g fill="#cb9f21"><rect x="17" y="5" width="2" height="1" class="a15"/><rect x="13" y="6" width="1" height="1" class="a15"/><rect x="22" y="6" width="1" height="1" class="a15"/><rect x="8" y="8" width="1" height="1" class="a16"/><rect x="26" y="9" width="1" height="1" class="a15"/><rect x="6" y="12" width="1" height="1" class="a15"/><rect x="6" y="13" width="1" height="1" class="a15"/><rect x="28" y="13" width="1" height="1" class="a15"/><rect x="29" y="13" width="1" height="1" class="a16"/><rect x="5" y="17" width="1" height="1" class="a15"/><rect x="29" y="20" width="1" height="1" class="a15"/><rect x="6" y="22" width="1" height="1" class="a15"/><rect x="27" y="25" width="1" height="1" class="a16"/><rect x="9" y="26" width="1" height="1" class="a15"/><rect x="9" y="27" width="1" height="1" class="a16"/><rect x="23" y="28" width="1" height="1" class="a15"/><rect x="13" y="29" width="1" height="1" class="a16"/><rect x="18" y="29" width="1" height="1" class="a15"/></g><g fill="#d8b240"><rect x="21" y="5" width="1" height="1" class="a16"/><rect x="12" y="6" width="1" height="1" class="a15"/><rect x="21" y="6" width="1" height="1" class="a15"/><rect x="26" y="8" width="1" height="1" class="a16"/><rect x="7" y="9" width="1" height="1" class="a16"/><rect x="8" y="9" width="1" height="1" class="a15"/><rect x="28" y="12" width="1" height="1" class="a15"/><rect x="5" y="13" width="1" height="1" class="a16"/><rect x="5" y="18" width="1" height="1" class="a15"/><rect x="29" y="19" width="1" height="1" class="a15"/><rect x="6" y="23" width="2" height="1" class="a15"/><rect x="27" y="24" width="1" height="1" class="a15"/><rect x="14" y="29" width="1" height="1" class="a15"/><rect x="19" y="29" width="1" height="1" class="a15"/></g><g fill="#e5b834"><rect x="14" y="6" width="2" height="1" class="a15"/><rect x="19" y="6" width="1" height="1" class="a15"/><rect x="10" y="8" width="1" height="1" class="a15"/><rect x="24" y="8" width="1" height="1" class="a15"/><rect x="10" y="9" width="1" height="1" class="a15"/><rect x="7" y="12" width="1" height="1" class="a15"/><rect x="6" y="17" width="1" height="1" class="a15"/><rect x="27" y="20" width="1" height="1" class="a15"/><rect x="27" y="21" width="1" height="1" class="a15"/><rect x="7" y="22" width="1" height="1" class="a15"/><rect x="24" y="25" width="1" height="1" class="a15"/><rect x="10" y="26" width="1" height="1" class="a15"/><rect x="20" y="27" width="1" height="1" class="a15"/><rect x="15" y="28" width="1" height="1" class="a15"/><rect x="20" y="28" width="1" height="1" class="a15"/></g><g fill="#d6a312"><rect x="16" y="6" width="1" height="1" class="a15"/><rect x="20" y="6" width="1" height="1" class="a15"/><rect x="20" y="7" width="1" height="1" class="a15"/><rect x="11" y="8" width="1" height="1" class="a15"/><rect x="24" y="9" width="2" height="1" class="a15"/><rect x="27" y="13" width="1" height="1" class="a15"/><rect x="6" y="16" width="1" height="1" class="a15"/><rect x="28" y="17" width="1" height="1" class="a15"/><rect x="7" y="21" width="1" height="1" class="a15"/><rect x="27" y="22" width="1" height="1" class="a15"/><rect x="10" y="25" width="1" height="1" class="a15"/><rect x="24" y="26" width="1" height="1" class="a15"/><rect x="14" y="28" width="1" height="1" class="a15"/><rect x="19" y="28" width="1" height="1" class="a15"/></g><g fill="#dead23"><rect x="17" y="6" width="2" height="1" class="a15"/><rect x="13" y="7" width="1" height="1" class="a15"/><rect x="22" y="7" width="1" height="1" class="a15"/><rect x="8" y="10" width="2" height="1" class="a15"/><rect x="26" y="10" width="1" height="1" class="a15"/><rect x="26" y="11" width="1" height="1" class="a15"/><rect x="6" y="14" width="1" height="1" class="a15"/><rect x="28" y="15" width="1" height="1" class="a15"/><rect x="6" y="19" width="1" height="1" class="a15"/><rect x="28" y="19" width="1" height="1" class="a15"/><rect x="8" y="24" width="2" height="1" class="a15"/><rect x="26" y="24" width="1" height="1" class="a15"/><rect x="12" y="27" width="1" height="1" class="a15"/><rect x="22" y="27" width="2" height="1" class="a15"/><rect x="17" y="28" width="1" height="1" class="a15"/></g><g fill="#ebc245"><rect x="11" y="7" width="2" height="1" class="a15"/><rect x="21" y="7" width="1" height="1" class="a15"/><rect x="25" y="10" width="1" height="1" class="a15"/><rect x="7" y="11" width="2" height="1" class="a15"/><rect x="27" y="14" width="2" height="1" class="a15"/><rect x="6" y="15" width="1" height="1" class="a15"/><rect x="28" y="18" width="1" height="1" class="a15"/><rect x="6" y="20" width="2" height="1" class="a15"/><rect x="26" y="23" width="2" height="1" class="a15"/><rect x="9" y="25" width="1" height="1" class="a15"/><rect x="23" y="26" width="1" height="1" class="a15"/><rect x="13" y="27" width="2" height="1" class="a15"/><rect x="18" y="28" width="1" height="1" class="a15"/></g><g fill="#cf9801"><rect x="14" y="7" width="1" height="1" class="a15"/><rect x="23" y="8" width="1" height="1" class="a15"/><rect x="9" y="9" width="1" height="1" class="a15"/><rect x="27" y="12" width="1" height="1" class="a15"/><rect x="7" y="13" width="1" height="1" class="a15"/><rect x="7" y="14" width="1" height="1" class="a15"/><rect x="28" y="16" width="1" height="1" class="a15"/><rect x="6" y="18" width="1" height="1" class="a15"/><rect x="28" y="20" width="1" height="1" class="a15"/><rect x="8" y="23" width="1" height="1" class="a15"/><rect x="25" y="24" width="1" height="1" class="a15"/><rect x="25" y="25" width="1" height="1" class="a15"/><rect x="11" y="26" width="1" height="1" class="a15"/><rect x="21" y="27" width="1" height="1" class="a15"/><rect x="16" y="28" width="1" height="1" class="a15"/></g><g fill="#e8b013"><rect x="15" y="7" width="2" height="1" class="a15"/><rect x="20" y="8" width="1" height="1" class="a15"/><rect x="11" y="9" width="1" height="1" class="a15"/><rect x="11" y="10" width="1" height="1" class="a14"/><rect x="24" y="11" width="1" height="1" class="a14"/><rect x="8" y="13" width="1" height="1" class="a15"/><rect x="26" y="15" width="1" height="1" class="a14"/><rect x="27" y="15" width="1" height="1" class="a15"/><rect x="7" y="18" width="1" height="1" class="a15"/><rect x="7" y="19" width="1" height="1" class="a15"/><rect x="26" y="21" width="1" height="1" class="a15"/><rect x="9" y="23" width="1" height="1" class="a15"/><rect x="10" y="23" width="1" height="1" class="a14"/><rect x="23" y="25" width="1" height="1" class="a15"/><rect x="13" y="26" width="1" height="1" class="a15"/><rect x="18" y="27" width="2" height="1" class="a15"/></g><path fill="#ffd24a" d="M14 12h1v1H14zM12 13h1v1H12zM15 14h1v1H15zM22 18h1v1H22zM11 20h1v1H11zM22 22h1v1H22z"/><g fill="#ffd24a"><rect x="17" y="7" width="1" height="1" class="a15"/><rect x="21" y="8" width="1" height="1" class="a15"/><rect x="12" y="9" width="1" height="1" class="a14"/><rect x="25" y="11" width="1" height="1" class="a15"/><rect x="8" y="12" width="1" height="1" class="a15"/><rect x="25" y="12" width="1" height="1" class="a14"/><rect x="27" y="16" width="1" height="1" class="a15"/><rect x="7" y="17" width="1" height="1" class="a15"/><rect x="27" y="17" width="1" height="1" class="a15"/><rect x="9" y="22" width="1" height="1" class="a14"/><rect x="25" y="22" width="1" height="1" class="a14"/><rect x="26" y="22" width="1" height="1" class="a15"/><rect x="12" y="25" width="1" height="1" class="a14"/><rect x="22" y="25" width="1" height="1" class="a14"/><rect x="12" y="26" width="1" height="1" class="a15"/><rect x="17" y="27" width="1" height="1" class="a15"/></g><g fill="#e0a400"><rect x="18" y="7" width="1" height="1" class="a15"/><rect x="14" y="8" width="1" height="1" class="a15"/><rect x="23" y="9" width="1" height="1" class="a15"/><rect x="9" y="11" width="1" height="1" class="a15"/><rect x="10" y="11" width="1" height="1" class="a14"/><rect x="26" y="13" width="1" height="1" class="a15"/><rect x="7" y="15" width="1" height="1" class="a15"/><rect x="26" y="19" width="1" height="1" class="a14"/><rect x="27" y="19" width="1" height="1" class="a15"/><rect x="8" y="20" width="1" height="1" class="a15"/><rect x="24" y="23" width="1" height="1" class="a14"/><rect x="11" y="24" width="1" height="1" class="a14"/><rect x="24" y="24" width="1" height="1" class="a15"/><rect x="15" y="26" width="1" height="1" class="a14"/><rect x="20" y="26" width="1" height="1" class="a15"/><rect x="15" y="27" width="1" height="1" class="a15"/></g><g fill="#f8c738"><rect x="19" y="7" width="1" height="1" class="a15"/><rect x="15" y="8" width="1" height="1" class="a14"/><rect x="19" y="8" width="1" height="1" class="a14"/><rect x="10" y="10" width="1" height="1" class="a15"/><rect x="23" y="10" width="1" height="1" class="a14"/><rect x="24" y="10" width="1" height="1" class="a15"/><rect x="8" y="14" width="1" height="1" class="a15"/><rect x="26" y="14" width="1" height="1" class="a15"/><rect x="8" y="15" width="1" height="1" class="a14"/><rect x="8" y="19" width="1" height="1" class="a14"/><rect x="26" y="20" width="1" height="1" class="a15"/><rect x="10" y="24" width="1" height="1" class="a15"/><rect x="23" y="24" width="1" height="1" class="a14"/><rect x="14" y="26" width="1" height="1" class="a15"/><rect x="19" y="26" width="1" height="1" class="a14"/></g><g fill="#f0bb25"><rect x="12" y="8" width="2" height="1" class="a15"/><rect x="22" y="8" width="1" height="1" class="a15"/><rect x="22" y="9" width="1" height="1" class="a14"/><rect x="9" y="12" width="1" height="1" class="a14"/><rect x="26" y="12" width="1" height="1" class="a15"/><rect x="7" y="16" width="1" height="1" class="a15"/><rect x="27" y="18" width="1" height="1" class="a15"/><rect x="8" y="21" width="1" height="1" class="a15"/><rect x="8" y="22" width="1" height="1" class="a15"/><rect x="25" y="23" width="1" height="1" class="a15"/><rect x="11" y="25" width="1" height="1" class="a15"/><rect x="21" y="26" width="2" height="1" class="a15"/><rect x="16" y="27" width="1" height="1" class="a15"/></g><path fill="#9b730f" d="M14 10h1v1H14zM16 10h1v1H16zM18 10h1v1H18zM20 10h1v1H20zM13 11h1v1H13zM15 11h1v1H15zM17 11h3v1H17zM21 11h1v1H21zM13 12h1v1H13zM15 12h1v1H15zM20 12h2v1H20zM19 13h1v1H19zM10 14h1v1H10zM12 14h1v1H12zM19 14h2v1H19zM22 14h3v1H22zM16 15h1v1H16zM15 16h3v1H15zM24 16h1v1H24zM11 17h1v1H11zM13 17h2v1H13zM17 17h1v1H17zM19 17h1v1H19zM22 17h1v1H22zM24 17h1v1H24zM17 18h2v1H17zM10 19h1v1H10zM12 19h1v1H12zM16 19h2v1H16zM22 19h2v1H22zM10 20h1v1H10zM12 20h1v1H12zM16 20h3v1H16zM22 20h1v1H22zM11 21h1v1H11zM13 21h2v1H13zM21 21h1v1H21zM13 22h2v1H13zM13 23h2v1H13zM21 23h1v1H21zM19 24h2v1H19z"/><path fill="#6b500e" d="M15 10h1v1H15zM17 10h1v1H17zM19 10h1v1H19zM14 11h1v1H14zM20 11h1v1H20zM12 12h1v1H12zM18 12h1v1H18zM11 13h1v1H11zM20 13h1v1H20zM11 14h1v1H11zM13 14h2v1H13zM16 14h3v1H16zM15 15h1v1H15zM24 15h1v1H24zM10 17h1v1H10zM12 17h1v1H12zM15 17h2v1H15zM20 17h1v1H20zM12 18h1v1H12zM24 18h1v1H24zM13 19h1v1H13zM15 19h1v1H15zM18 19h1v1H18zM20 19h1v1H20zM13 20h1v1H13zM15 20h1v1H15zM23 20h2v1H23zM19 21h1v1H19zM23 21h1v1H23zM19 23h1v1H19z"/><path fill="#b9780e" d="M16 11h1v1H16zM19 12h1v1H19zM16 13h1v1H16zM21 14h1v1H21zM18 17h1v1H18z"/><path fill="#d9971e" d="M16 12h2v1H16zM22 12h1v1H22zM22 13h1v1H22zM23 15h1v1H23zM10 18h2v1H10zM14 18h1v1H14zM19 19h1v1H19zM24 19h1v1H24zM21 22h1v1H21zM14 24h1v1H14z"/><path fill="#fcb913" d="M13 13h2v1H13zM23 13h1v1H23zM19 18h2v1H19zM11 19h1v1H11zM21 20h1v1H21zM20 23h1v1H20z"/><path fill="#ff7a00" d="M15 13h1v1H15zM21 13h1v1H21zM23 16h1v1H23zM21 17h1v1H21zM16 18h1v1H16z"/><path fill="#ffe680" d="M17 13h1v1H17zM12 22h1v1H12zM12 23h1v1H12z"/><path fill="#16d34c" d="M18 13h1v1H18zM23 17h1v1H23zM23 18h1v1H23zM14 19h1v1H14zM19 22h2v1H19z"/><path fill="#040404" d="M10 15h2v1H10zM22 15h1v1H22z"/><path fill="#050505" d="M12 15h2v1H12zM18 15h2v1H18zM12 16h1v1H12z"/><path fill="#060606" d="M14 15h1v1H14zM20 15h1v1H20z"/><path fill="#b58134" d="M17 15h1v1H17zM14 20h1v1H14zM20 20h1v1H20z"/><path fill="#030303" d="M21 15h1v1H21zM20 16h1v1H20z"/><path fill="#e6ecf5" d="M10 16h2v1H10zM13 16h2v1H13zM18 16h2v1H18zM21 16h2v1H21z"/><path fill="#c1861a" d="M13 18h1v1H13zM21 18h1v1H21z"/><path fill="#5f470c" d="M15 18h1v1H15z"/><path fill="#e09f3e" d="M21 19h1v1H21zM19 20h1v1H19zM20 21h1v1H20zM22 21h1v1H22z"/><path fill="#fffbe6" d="M12 21h1v1H12z"/><path fill="#eef2f8" d="M15 21h4v1H15z"/><path fill="#271d02" d="M15 22h1v1H15zM18 25h1v1H18z"/><path fill="#2c2003" d="M16 22h1v1H16zM15 23h1v1H15z"/><path fill="#312403" d="M17 22h1v1H17zM16 23h1v1H16zM15 24h1v1H15z"/><path fill="#362804" d="M18 22h1v1H18zM17 23h1v1H17zM15 25h1v1H15z"/><path fill="#3b2b04" d="M18 23h1v1H18z"/><path fill="#c8324a" d="M16 24h2v1H16zM16 25h2v1H16z"/><path fill="#221902" d="M18 24h1v1H18z"/><g fill="#edcf85"><rect x="16" y="10" width="1" height="1" class="a00"/><rect x="20" y="10" width="1" height="1" class="a04"/><rect x="18" y="11" width="1" height="1" class="a01"/><rect x="13" y="12" width="1" height="1" class="a05"/><rect x="10" y="14" width="1" height="1" class="a02"/><rect x="22" y="14" width="1" height="1" class="a06"/><rect x="22" y="17" width="1" height="1" class="a07"/><rect x="18" y="18" width="1" height="1" class="a06"/><rect x="11" y="21" width="1" height="1" class="a02"/><rect x="13" y="23" width="1" height="1" class="a06"/><rect x="20" y="24" width="1" height="1" class="a06"/></g><g fill="#e7c677"><rect x="19" y="10" width="1" height="1" class="a01"/><rect x="14" y="11" width="1" height="1" class="a05"/><rect x="20" y="11" width="1" height="1" class="a07"/><rect x="12" y="12" width="1" height="1" class="a02"/><rect x="11" y="14" width="1" height="1" class="a05"/><rect x="13" y="14" width="1" height="1" class="a03"/><rect x="15" y="15" width="1" height="1" class="a04"/><rect x="10" y="17" width="1" height="1" class="a03"/><rect x="15" y="17" width="1" height="1" class="a02"/><rect x="16" y="17" width="1" height="1" class="a05"/><rect x="20" y="17" width="1" height="1" class="a01"/><rect x="24" y="18" width="1" height="1" class="a00"/><rect x="13" y="19" width="1" height="1" class="a02"/><rect x="15" y="19" width="1" height="1" class="a00"/><rect x="13" y="20" width="1" height="1" class="a05"/><rect x="19" y="23" width="1" height="1" class="a00"/></g><g fill="#eed4a4"><rect x="17" y="12" width="1" height="1" class="a01"/><rect x="11" y="18" width="1" height="1" class="a01"/><rect x="14" y="18" width="1" height="1" class="a02"/><rect x="21" y="22" width="1" height="1" class="a03"/><rect x="14" y="24" width="1" height="1" class="a04"/></g><g fill="#f9e0a3"><rect x="14" y="13" width="1" height="1" class="a03"/><rect x="23" y="13" width="1" height="1" class="a06"/><rect x="21" y="20" width="1" height="1" class="a05"/></g><rect x="21" y="14" width="1" height="1" fill="#f1cb8d" class="a03"/><g fill="#9cf0b4"><rect x="23" y="17" width="1" height="1" class="a02"/><rect x="23" y="18" width="1" height="1" class="a05"/><rect x="14" y="19" width="1" height="1" class="a05"/><rect x="20" y="22" width="1" height="1" class="a00"/></g><g fill="#efd7b3"><rect x="21" y="19" width="1" height="1" class="a02"/><rect x="19" y="20" width="1" height="1" class="a07"/></g><rect x="20" y="20" width="1" height="1" fill="#e3ccaa" class="a02"/><rect x="12" y="21" width="1" height="1" fill="#737168" class="a05"/><rect x="12" y="23" width="1" height="1" fill="#fdf3cd" class="a03"/></svg>