<svg viewBox="0 0 35 35" shape-rendering="crispEdges" xmlns="http://www.w3.org/2000/svg"><style>@keyframes pop{0%,100%{opacity:0}18%{opacity:1}36%{opacity:0}}@keyframes k1{0%{opacity:0}18.00%{opacity:.95}40.00%{opacity:0}100%{opacity:0}}.a00{animation:pop 2.2s linear 0.00s infinite}.a01{animation:pop 2.2s linear -0.28s infinite}.a02{animation:pop 2.2s linear -0.55s infinite}.a03{animation:pop 2.2s linear -0.83s infinite}.a04{animation:pop 2.2s linear -1.10s infinite}.a05{animation:pop 2.2s linear -1.38s infinite}.a06{animation:pop 2.2s linear -1.65s infinite}.a07{animation:pop 2.2s linear -1.93s infinite}.a10{animation:k1 5s ease-in-out 0.00s infinite}.a11{animation:k1 5s ease-in-out -0.63s infinite}.a12{animation:k1 5s ease-in-out -1.25s infinite}.a13{animation:k1 5s ease-in-out -1.88s infinite}.a14{animation:k1 5s ease-in-out -2.50s infinite}.a15{animation:k1 5s ease-in-out -3.13s infinite}.a16{animation:k1 5s ease-in-out -3.75s infinite}.a17{animation:k1 5s ease-in-out -4.38s infinite}</style><rect width="35" height="35" fill="#0a0a0a"/><path fill="#fff6d8" d="M15 7h2v1H15zM19 7h1v1H19zM14 8h1v1H14zM19 8h1v1H19zM21 8h1v1H21zM12 9h1v1H12zM23 9h1v1H23zM10 10h1v1H10zM24 11h1v1H24zM9 12h1v1H9zM26 12h1v1H26zM8 13h1v1H8zM26 14h1v1H26zM7 15h1v1H7zM27 16h1v1H27zM7 17h1v1H7zM27 17h1v1H27zM8 19h1v1H8zM26 19h2v1H26zM8 21h1v1H8zM26 21h1v1H26zM8 22h1v1H8zM9 23h2v1H9zM25 23h1v1H25zM11 24h1v1H11zM12 25h1v1H12zM22 25h1v1H22zM12 26h1v1H12zM14 26h1v1H14zM20 26h1v1H20zM16 27h1v1H16zM18 27h2v1H18z"/><path fill="#fcb913" d="M17 7h2v1H17zM12 8h2v1H12zM15 8h1v1H15zM20 8h1v1H20zM22 8h1v1H22zM11 9h1v1H11zM22 9h1v1H22zM11 10h1v1H11zM15 10h1v1H15zM19 10h1v1H19zM23 10h2v1H23zM9 11h2v1H9zM25 11h1v1H25zM8 12h1v1H8zM13 12h1v1H13zM17 12h1v1H17zM25 12h1v1H25zM13 13h1v1H13zM26 13h1v1H26zM8 14h1v1H8zM8 15h1v1H8zM21 15h1v1H21zM26 15h2v1H26zM7 16h1v1H7zM18 16h1v1H18zM10 17h1v1H10zM7 18h1v1H7zM27 18h1v1H27zM7 19h1v1H7zM10 19h1v1H10zM15 19h1v1H15zM17 19h1v1H17zM8 20h1v1H8zM10 20h1v1H10zM22 20h1v1H22zM24 20h1v1H24zM26 20h1v1H26zM16 21h1v1H16zM19 21h1v1H19zM22 21h1v1H22zM9 22h1v1H9zM25 22h2v1H25zM24 23h1v1H24zM10 24h1v1H10zM24 24h1v1H24zM11 25h1v1H11zM13 26h1v1H13zM15 26h1v1H15zM19 26h1v1H19zM21 26h2v1H21zM15 27h1v1H15zM17 27h1v1H17z"/><path fill="#6b500e" d="M14 10h1v1H14zM16 10h1v1H16zM13 11h1v1H13zM15 12h2v1H15zM20 12h2v1H20zM11 13h1v1H11zM16 13h1v1H16zM23 13h1v1H23zM19 14h1v1H19zM21 14h1v1H21zM10 15h3v1H10zM14 15h2v1H14zM18 15h2v1H18zM22 15h1v1H22zM24 15h1v1H24zM22 16h1v1H22zM24 16h1v1H24zM12 17h1v1H12zM19 17h1v1H19zM24 17h1v1H24zM19 19h1v1H19zM23 19h1v1H23zM11 21h1v1H11zM13 21h2v1H13zM22 22h1v1H22zM14 24h1v1H14zM16 25h3v1H16z"/><path fill="#ffd24a" d="M17 10h1v1H17zM12 14h1v1H12zM19 16h3v1H19zM11 17h1v1H11zM18 17h1v1H18zM18 21h1v1H18zM23 21h1v1H23zM12 22h1v1H12zM23 23h1v1H23zM23 25h1v1H23zM23 27h1v1H23zM23 29h1v1H23z"/><path fill="#9b730f" d="M18 10h1v1H18zM17 11h1v1H17zM12 12h1v1H12zM14 12h1v1H14zM18 12h2v1H18zM22 12h1v1H22zM12 13h1v1H12zM15 13h1v1H15zM17 13h3v1H17zM21 13h1v1H21zM10 14h2v1H10zM13 14h1v1H13zM15 14h4v1H15zM22 14h3v1H22zM20 15h1v1H20zM23 15h1v1H23zM11 16h2v1H11zM15 16h1v1H15zM17 16h1v1H17zM23 16h1v1H23zM14 17h4v1H14zM21 17h1v1H21zM10 18h1v1H10zM14 18h3v1H14zM23 18h1v1H23zM12 19h3v1H12zM21 19h1v1H21zM24 19h1v1H24zM11 20h1v1H11zM17 20h2v1H17zM17 21h1v1H17zM13 22h1v1H13zM12 23h2v1H12zM21 23h2v1H21z"/><path fill="#b534a1" d="M20 10h1v1H20zM16 15h1v1H16zM14 16h1v1H14zM13 17h1v1H13zM24 18h1v1H24zM15 20h1v1H15zM20 21h1v1H20z"/><path fill="#2f9ad3" d="M14 11h2v1H14zM19 11h2v1H19zM20 14h1v1H20zM13 16h1v1H13zM21 22h1v1H21z"/><path fill="#f0f0f0" d="M16 11h1v1H16zM17 18h1v1H17z"/><path fill="#e03ec7" d="M18 11h1v1H18zM14 13h1v1H14zM13 15h1v1H13zM17 15h1v1H17zM16 19h1v1H16zM12 21h1v1H12z"/><path fill="#d9971e" d="M21 11h1v1H21zM20 13h1v1H20zM22 13h1v1H22zM14 14h1v1H14zM16 16h1v1H16zM23 17h1v1H23zM11 19h1v1H11zM14 20h1v1H14zM16 20h1v1H16zM20 24h1v1H20z"/><path fill="#b9780e" d="M10 16h1v1H10zM15 21h1v1H15z"/><path fill="#ffffff" d="M20 17h1v1H20z"/><path fill="#e8bd45" d="M22 17h1v1H22zM23 20h1v1H23zM23 22h1v1H23zM23 24h1v1H23zM23 26h1v1H23zM23 28h1v1H23zM23 30h1v1H23z"/><path fill="#e6ecf5" d="M11 18h1v1H11zM13 18h1v1H13z"/><path fill="#030303" d="M12 18h1v1H12z"/><path fill="#c9a227" d="M18 18h1v1H18zM22 18h1v1H22z"/><path fill="#a8cfe4" d="M19 18h1v1H19zM21 18h1v1H21z"/><path fill="#dff4ff" d="M20 18h1v1H20z"/><path fill="#a8811c" d="M18 19h1v1H18z"/><path fill="#7ea6bc" d="M20 19h1v1H20z"/><path fill="#8a6a14" d="M22 19h1v1H22zM19 20h3v1H19z"/><path fill="#fff4cc" d="M12 20h1v1H12zM21 21h1v1H21z"/><path fill="#5f470c" d="M13 20h1v1H13z"/><path fill="#161001" d="M14 22h7v1H14zM14 23h1v1H14zM20 23h1v1H20zM15 24h5v1H15z"/><path fill="#d6dde8" d="M15 23h1v1H15z"/><path fill="#e2e8f0" d="M16 23h1v1H16z"/><path fill="#f8fafc" d="M17 23h1v1H17z"/><path fill="#ecf1f7" d="M18 23h1v1H18z"/><path fill="#f4f7fb" d="M19 23h1v1H19z"/><g fill="#837f6f"><rect x="15" y="7" width="2" height="1" class="a16"/><rect x="19" y="7" width="1" height="1" class="a16"/><rect x="14" y="8" width="1" height="1" class="a16"/><rect x="19" y="8" width="1" height="1" class="a15"/><rect x="21" y="8" width="1" height="1" class="a16"/><rect x="12" y="9" width="1" height="1" class="a15"/><rect x="23" y="9" width="1" height="1" class="a16"/><rect x="10" y="10" width="1" height="1" class="a16"/><rect x="24" y="11" width="1" height="1" class="a15"/><rect x="9" y="12" width="1" height="1" class="a15"/><rect x="26" y="12" width="1" height="1" class="a16"/><rect x="8" y="13" width="1" height="1" class="a16"/><rect x="26" y="14" width="1" height="1" class="a16"/><rect x="7" y="15" width="1" height="1" class="a16"/><rect x="27" y="16" width="1" height="1" class="a16"/><rect x="7" y="17" width="1" height="1" class="a16"/><rect x="27" y="17" width="1" height="1" class="a16"/><rect x="8" y="19" width="1" height="1" class="a15"/><rect x="26" y="19" width="1" height="1" class="a15"/><rect x="27" y="19" width="1" height="1" class="a16"/><rect x="8" y="21" width="1" height="1" class="a16"/><rect x="26" y="21" width="1" height="1" class="a16"/><rect x="8" y="22" width="1" height="1" class="a16"/><rect x="9" y="23" width="1" height="1" class="a16"/><rect x="10" y="23" width="1" height="1" class="a15"/><rect x="25" y="23" width="1" height="1" class="a16"/><rect x="11" y="24" width="1" height="1" class="a15"/><rect x="12" y="25" width="1" height="1" class="a15"/><rect x="22" y="25" width="1" height="1" class="a15"/><rect x="12" y="26" width="1" height="1" class="a16"/><rect x="14" y="26" width="1" height="1" class="a16"/><rect x="20" y="26" width="1" height="1" class="a16"/><rect x="16" y="27" width="1" height="1" class="a16"/><rect x="18" y="27" width="2" height="1" class="a16"/></g><g fill="#f9cf68"><rect x="17" y="7" width="2" height="1" class="a16"/><rect x="12" y="8" width="2" height="1" class="a16"/><rect x="15" y="8" width="1" height="1" class="a15"/><rect x="20" y="8" width="1" height="1" class="a16"/><rect x="22" y="8" width="1" height="1" class="a16"/><rect x="11" y="9" width="1" height="1" class="a16"/><rect x="22" y="9" width="1" height="1" class="a15"/><rect x="11" y="10" width="1" height="1" class="a15"/><rect x="23" y="10" width="1" height="1" class="a15"/><rect x="24" y="10" width="1" height="1" class="a16"/><rect x="9" y="11" width="1" height="1" class="a16"/><rect x="10" y="11" width="1" height="1" class="a15"/><rect x="25" y="11" width="1" height="1" class="a16"/><rect x="8" y="12" width="1" height="1" class="a16"/><rect x="25" y="12" width="1" height="1" class="a15"/><rect x="26" y="13" width="1" height="1" class="a16"/><rect x="8" y="14" width="1" height="1" class="a16"/><rect x="8" y="15" width="1" height="1" class="a15"/><rect x="26" y="15" width="1" height="1" class="a15"/><rect x="27" y="15" width="1" height="1" class="a16"/><rect x="7" y="16" width="1" height="1" class="a16"/><rect x="7" y="18" width="1" height="1" class="a16"/><rect x="27" y="18" width="1" height="1" class="a16"/><rect x="7" y="19" width="1" height="1" class="a16"/><rect x="8" y="20" width="1" height="1" class="a16"/><rect x="26" y="20" width="1" height="1" class="a16"/><rect x="9" y="22" width="1" height="1" class="a15"/><rect x="25" y="22" width="1" height="1" class="a15"/><rect x="26" y="22" width="1" height="1" class="a16"/><rect x="24" y="23" width="1" height="1" class="a15"/><rect x="10" y="24" width="1" height="1" class="a16"/><rect x="24" y="24" width="1" height="1" class="a16"/><rect x="11" y="25" width="1" height="1" class="a16"/><rect x="13" y="26" width="1" height="1" class="a16"/><rect x="15" y="26" width="1" height="1" class="a15"/><rect x="19" y="26" width="1" height="1" class="a15"/><rect x="21" y="26" width="2" height="1" class="a16"/><rect x="15" y="27" width="1" height="1" class="a16"/><rect x="17" y="27" width="1" height="1" class="a16"/></g><g fill="#edcf85"><rect x="18" y="10" width="1" height="1" class="a07"/><rect x="12" y="12" width="1" height="1" class="a03"/><rect x="15" y="13" width="1" height="1" class="a03"/><rect x="10" y="14" width="1" height="1" class="a03"/><rect x="18" y="14" width="1" height="1" class="a03"/><rect x="22" y="14" width="1" height="1" class="a07"/><rect x="23" y="14" width="1" height="1" class="a06"/><rect x="24" y="14" width="1" height="1" class="a05"/><rect x="14" y="17" width="1" height="1" class="a00"/><rect x="15" y="17" width="1" height="1" class="a07"/><rect x="13" y="19" width="1" height="1" class="a07"/><rect x="21" y="19" width="1" height="1" class="a07"/><rect x="24" y="19" width="1" height="1" class="a04"/><rect x="18" y="20" width="1" height="1" class="a05"/><rect x="12" y="23" width="1" height="1" class="a04"/><rect x="21" y="23" width="1" height="1" class="a03"/><rect x="22" y="23" width="1" height="1" class="a02"/></g><g fill="#e7c677"><rect x="13" y="11" width="1" height="1" class="a07"/><rect x="16" y="12" width="1" height="1" class="a07"/><rect x="20" y="12" width="1" height="1" class="a03"/><rect x="21" y="12" width="1" height="1" class="a02"/><rect x="23" y="13" width="1" height="1" class="a03"/><rect x="21" y="14" width="1" height="1" class="a00"/><rect x="12" y="15" width="1" height="1" class="a04"/><rect x="18" y="15" width="1" height="1" class="a06"/><rect x="22" y="15" width="1" height="1" class="a02"/><rect x="24" y="15" width="1" height="1" class="a00"/><rect x="24" y="16" width="1" height="1" class="a03"/><rect x="19" y="17" width="1" height="1" class="a03"/><rect x="23" y="19" width="1" height="1" class="a05"/><rect x="11" y="21" width="1" height="1" class="a07"/><rect x="13" y="21" width="1" height="1" class="a05"/><rect x="18" y="25" width="1" height="1" class="a04"/></g><g fill="#add5ea"><rect x="14" y="11" width="1" height="1" class="a06"/><rect x="13" y="16" width="1" height="1" class="a06"/><rect x="21" y="22" width="1" height="1" class="a00"/></g><g fill="#f9e0a3"><rect x="17" y="12" width="1" height="1" class="a06"/><rect x="10" y="20" width="1" height="1" class="a05"/><rect x="22" y="21" width="1" height="1" class="a04"/></g><g fill="#eed4a4"><rect x="22" y="13" width="1" height="1" class="a04"/><rect x="11" y="19" width="1" height="1" class="a01"/></g><g fill="#e3aada"><rect x="16" y="15" width="1" height="1" class="a00"/><rect x="13" y="17" width="1" height="1" class="a01"/></g><rect x="10" y="16" width="1" height="1" fill="#f1cb8d" class="a01"/><g fill="#fbebb8"><rect x="11" y="17" width="1" height="1" class="a03"/><rect x="18" y="21" width="1" height="1" class="a00"/></g><rect x="12" y="20" width="1" height="1" fill="#736e5c" class="a03"/></svg>