<svg viewBox="0 0 35 35" shape-rendering="crispEdges" xmlns="http://www.w3.org/2000/svg"><rect width="35" height="35" fill="#0e1714"/><path fill="#e0b23e" d="M0 3h1v1H0zM3 3h1v1H3zM7 3h1v1H7zM10 3h1v1H10zM14 3h1v1H14zM17 3h1v1H17zM20 3h1v1H20zM24 3h1v1H24zM27 3h1v1H27zM31 3h1v1H31zM34 3h1v1H34zM2 5h1v1H2zM5 5h1v1H5zM12 5h1v1H12zM22 5h1v1H22zM29 5h1v1H29zM32 5h1v1H32zM0 7h1v1H0zM2 7h2v1H2zM5 7h1v1H5zM7 7h1v1H7zM27 7h1v1H27zM29 7h1v1H29zM31 7h2v1H31zM34 7h1v1H34zM0 10h1v1H0zM2 10h2v1H2zM5 10h1v1H5zM29 10h1v1H29zM31 10h2v1H31zM34 10h1v1H34zM1 11h1v1H1zM4 11h1v1H4zM0 12h1v1H0zM2 12h2v1H2zM5 12h1v1H5zM29 12h1v1H29zM31 12h2v1H31zM34 12h1v1H34zM30 13h1v1H30zM33 13h1v1H33zM0 14h1v1H0zM2 14h2v1H2zM31 14h2v1H31zM34 14h1v1H34zM0 15h1v1H0zM2 15h2v1H2zM31 15h2v1H31zM34 15h1v1H34zM1 16h1v1H1zM4 16h1v1H4zM30 16h1v1H30zM33 16h1v1H33zM0 17h1v1H0zM2 17h2v1H2zM31 17h2v1H31zM34 17h1v1H34zM1 18h1v1H1zM4 18h1v1H4zM30 18h1v1H30zM33 18h1v1H33zM0 19h1v1H0zM2 19h2v1H2zM31 19h2v1H31zM34 19h1v1H34zM0 20h5v1H0zM31 20h2v1H31zM34 20h1v1H34zM1 21h1v1H1zM4 21h1v1H4zM30 21h1v1H30zM33 21h1v1H33zM0 22h1v1H0zM2 22h2v1H2zM5 22h1v1H5zM29 22h6v1H29zM1 23h1v1H1zM4 23h1v1H4zM30 23h1v1H30zM33 23h1v1H33zM0 24h7v1H0zM28 24h7v1H28zM1 25h1v1H1zM4 25h1v1H4zM6 25h1v1H6zM28 25h1v1H28zM30 25h1v1H30zM33 25h1v1H33zM1 26h1v1H1zM4 26h1v1H4zM6 26h1v1H6zM28 26h1v1H28zM30 26h1v1H30zM33 26h1v1H33zM0 27h9v1H0zM26 27h9v1H26zM0 28h2v1H0zM3 28h2v1H3zM6 28h5v1H6zM24 28h5v1H24zM30 28h2v1H30zM33 28h2v1H33zM0 29h13v1H0zM22 29h13v1H22zM1 30h2v1H1zM4 30h3v1H4zM8 30h2v1H8zM11 30h3v1H11zM15 30h2v1H15zM18 30h2v1H18zM21 30h3v1H21zM25 30h2v1H25zM28 30h3v1H28zM32 30h2v1H32zM0 31h35v1H0zM0 32h35v1H0zM0 33h35v1H0zM0 34h35v1H0z"/><path fill="#947a2f" d="M13 7h1v1H13zM15 7h2v1H15zM18 7h1v1H18zM20 7h2v1H20zM12 8h1v1H12zM23 8h1v1H23zM10 9h1v1H10zM24 9h1v1H24zM25 10h1v1H25zM9 11h1v1H9zM26 11h1v1H26zM8 12h1v1H8zM7 13h1v1H7zM27 13h1v1H27zM28 14h1v1H28zM7 15h1v1H7zM28 16h1v1H28zM7 17h1v1H7zM7 18h1v1H7zM28 18h1v1H28zM28 19h1v1H28zM7 20h1v1H7zM28 21h1v1H28zM7 22h1v1H7zM27 22h1v1H27zM8 23h1v1H8zM9 24h1v1H9zM26 24h1v1H26zM25 25h1v1H25zM10 26h1v1H10zM24 26h1v1H24zM12 27h1v1H12zM23 27h1v1H23zM13 28h1v1H13zM15 28h2v1H15zM18 28h1v1H18zM20 28h2v1H20z"/><path fill="#a38532" d="M14 8h1v1H14zM16 8h1v1H16zM18 8h2v1H18zM21 8h1v1H21zM13 9h1v1H13zM22 9h1v1H22zM11 10h1v1H11zM24 10h1v1H24zM10 11h1v1H10zM25 11h1v1H25zM9 13h1v1H9zM26 13h1v1H26zM8 14h1v1H8zM27 14h1v1H27zM8 16h1v1H8zM27 16h1v1H27zM8 18h1v1H8zM27 18h1v1H27zM8 19h1v1H8zM27 19h1v1H27zM8 21h1v1H8zM27 21h1v1H27zM9 22h1v1H9zM26 22h1v1H26zM10 24h1v1H10zM25 24h1v1H25zM11 25h1v1H11zM24 25h1v1H24zM13 26h1v1H13zM22 26h1v1H22zM14 27h1v1H14zM16 27h1v1H16zM18 27h2v1H18zM21 27h1v1H21z"/><path fill="#b29035" d="M15 9h1v1H15zM17 9h1v1H17zM19 9h1v1H19zM22 10h1v1H22zM12 11h1v1H12zM23 11h1v1H23zM11 12h1v1H11zM10 13h1v1H10zM24 13h1v1H24zM25 14h1v1H25zM9 15h1v1H9zM26 16h1v1H26zM9 17h1v1H9zM9 18h1v1H9zM26 18h1v1H26zM26 19h1v1H26zM9 20h1v1H9zM25 21h1v1H25zM10 22h1v1H10zM24 22h1v1H24zM11 23h1v1H11zM12 24h1v1H12zM23 24h1v1H23zM14 25h1v1H14zM20 25h1v1H20zM22 25h1v1H22zM15 26h1v1H15zM17 26h1v1H17zM19 26h1v1H19z"/><path fill="#38b06e" d="M14 10h1v1H14zM16 10h1v1H16zM19 10h2v1H19zM13 11h1v1H13zM15 11h1v1H15zM18 11h1v1H18zM21 11h1v1H21zM15 12h2v1H15zM19 12h2v1H19zM22 12h1v1H22zM11 13h3v1H11zM15 13h1v1H15zM17 13h4v1H17zM10 14h2v1H10zM13 14h3v1H13zM20 14h5v1H20zM10 15h1v1H10zM14 15h5v1H14zM20 15h2v1H20zM24 15h1v1H24zM16 16h2v1H16zM19 16h6v1H19zM16 17h2v1H16zM10 18h5v1H10zM23 18h2v1H23zM10 19h1v1H10zM15 19h2v1H15zM18 19h1v1H18zM21 19h1v1H21zM10 20h1v1H10zM17 20h6v1H17zM24 20h1v1H24zM11 21h1v1H11zM13 21h6v1H13zM20 21h1v1H20zM13 22h3v1H13zM19 22h1v1H19zM21 22h2v1H21zM12 23h3v1H12zM20 23h3v1H20zM14 24h1v1H14zM17 24h1v1H17zM19 24h1v1H19z"/><path fill="#27905a" d="M15 10h1v1H15zM17 10h2v1H17zM14 11h1v1H14zM16 11h1v1H16zM19 11h1v1H19zM12 12h3v1H12zM21 12h1v1H21zM14 13h1v1H14zM21 13h3v1H21zM12 14h1v1H12zM16 14h4v1H16zM11 15h3v1H11zM19 15h1v1H19zM23 15h1v1H23zM15 16h1v1H15zM18 16h1v1H18zM15 17h1v1H15zM23 17h1v1H23zM15 18h3v1H15zM13 19h1v1H13zM17 19h1v1H17zM19 19h1v1H19zM22 19h3v1H22zM11 20h1v1H11zM13 20h2v1H13zM23 20h1v1H23zM19 21h1v1H19zM22 21h2v1H22zM19 23h1v1H19zM15 24h2v1H15zM18 24h1v1H18zM20 24h1v1H20zM16 25h2v1H16z"/><path fill="#5fd090" d="M17 11h1v1H17zM17 12h1v1H17zM16 13h1v1H16zM24 17h1v1H24zM16 20h1v1H16zM12 21h1v1H12zM21 21h1v1H21z"/><path fill="#2f9ad3" d="M20 11h1v1H20zM18 12h1v1H18zM15 20h1v1H15zM20 22h1v1H20z"/><path fill="#92e6b8" d="M22 15h1v1H22zM12 20h1v1H12zM12 22h1v1H12z"/><path fill="#060a09" d="M10 16h1v1H10zM21 17h1v1H21zM20 18h1v1H20z"/><path fill="#070b0a" d="M11 16h1v1H11zM22 17h1v1H22z"/><path fill="#070c0b" d="M12 16h1v1H12z"/><path fill="#080d0c" d="M13 16h1v1H13zM12 17h1v1H12zM18 17h1v1H18z"/><path fill="#040807" d="M14 16h1v1H14zM19 17h1v1H19z"/><path fill="#e6ecf5" d="M10 17h2v1H10zM13 17h2v1H13zM18 18h2v1H18zM21 18h2v1H21z"/><path fill="#050908" d="M20 17h1v1H20z"/><path fill="#fcb913" d="M11 19h1v1H11z"/><path fill="#54b980" d="M12 19h1v1H12z"/><path fill="#319c61" d="M14 19h1v1H14zM20 19h1v1H20z"/><path fill="#1d6e44" d="M16 22h3v1H16z"/><path fill="#173524" d="M15 23h1v1H15z"/><path fill="#5d7266" d="M16 23h1v1H16z"/><path fill="#143221" d="M17 23h1v1H17z"/><path fill="#0c2b1a" d="M18 23h1v1H18z"/></svg>