<svg viewBox="0 0 35 35" shape-rendering="crispEdges" xmlns="http://www.w3.org/2000/svg"><style>@keyframes pop{0%,100%{opacity:0}18%{opacity:1}36%{opacity:0}}.a00{animation:pop 2.6s linear 0.00s infinite}.a01{animation:pop 2.6s linear -0.33s infinite}.a02{animation:pop 2.6s linear -0.65s infinite}.a03{animation:pop 2.6s linear -0.98s infinite}.a04{animation:pop 2.6s linear -1.30s infinite}.a05{animation:pop 2.6s linear -1.63s infinite}.a06{animation:pop 2.6s linear -1.95s infinite}.a07{animation:pop 2.6s linear -2.28s infinite}</style><rect width="35" height="35" fill="#0a0a0a"/><path fill="#fcb913" d="M15 7h5v1H15zM12 8h4v1H12zM19 8h4v1H19zM11 9h2v1H11zM22 9h2v1H22zM10 10h2v1H10zM23 10h2v1H23zM9 11h2v1H9zM24 11h2v1H24zM8 12h2v1H8zM25 12h2v1H25zM8 13h1v1H8zM26 13h1v1H26zM8 14h1v1H8zM26 14h1v1H26zM7 15h2v1H7zM26 15h2v1H26zM7 16h1v1H7zM27 16h1v1H27zM7 17h1v1H7zM27 17h1v1H27zM7 18h1v1H7zM27 18h1v1H27zM7 19h2v1H7zM26 19h2v1H26zM8 20h1v1H8zM26 20h1v1H26zM8 21h1v1H8zM26 21h1v1H26zM8 22h2v1H8zM25 22h2v1H25zM9 23h2v1H9zM24 23h2v1H24zM10 24h2v1H10zM23 24h2v1H23zM11 25h2v1H11zM22 25h2v1H22zM12 26h4v1H12zM19 26h4v1H19zM15 27h5v1H15z"/><path fill="#6b500e" d="M14 10h1v1H14zM17 10h1v1H17zM20 10h1v1H20zM16 11h1v1H16zM19 11h2v1H19zM13 12h1v1H13zM11 13h1v1H11zM19 13h1v1H19zM22 13h1v1H22zM13 14h1v1H13zM19 14h1v1H19zM21 14h1v1H21zM10 15h1v1H10zM12 15h2v1H12zM15 15h1v1H15zM17 15h1v1H17zM21 15h1v1H21zM24 15h1v1H24zM16 16h1v1H16zM18 16h1v1H18zM24 16h1v1H24zM10 17h1v1H10zM17 17h2v1H17zM12 18h1v1H12zM23 18h2v1H23zM10 19h1v1H10zM13 19h3v1H13zM24 19h1v1H24zM11 20h1v1H11zM24 20h1v1H24zM11 21h1v1H11zM19 21h1v1H19zM21 23h1v1H21zM15 24h3v1H15z"/><path fill="#9b730f" d="M15 10h1v1H15zM19 10h1v1H19zM13 11h2v1H13zM18 11h1v1H18zM21 11h1v1H21zM14 12h3v1H14zM18 12h5v1H18zM13 13h1v1H13zM16 13h3v1H16zM20 13h2v1H20zM23 13h1v1H23zM10 14h2v1H10zM15 14h4v1H15zM20 14h1v1H20zM23 14h2v1H23zM11 15h1v1H11zM14 15h1v1H14zM16 15h1v1H16zM18 15h3v1H18zM22 15h2v1H22zM10 16h2v1H10zM17 16h1v1H17zM19 16h1v1H19zM12 17h5v1H12zM19 17h2v1H19zM22 17h3v1H22zM10 18h2v1H10zM14 18h1v1H14zM16 18h4v1H16zM22 18h1v1H22zM11 19h2v1H11zM16 19h4v1H16zM21 19h1v1H21zM23 19h1v1H23zM10 20h1v1H10zM13 20h4v1H13zM19 20h2v1H19zM22 20h2v1H22zM12 21h5v1H12zM20 21h2v1H20zM13 22h3v1H13zM17 22h5v1H17zM13 23h2v1H13zM17 23h3v1H17zM14 24h1v1H14zM18 24h3v1H18z"/><path fill="#663ee0" d="M16 10h1v1H16zM18 10h1v1H18zM12 12h1v1H12zM12 14h1v1H12zM11 17h1v1H11zM23 21h1v1H23zM15 23h2v1H15z"/><path fill="#fe0000" d="M15 11h1v1H15zM14 13h2v1H14zM22 19h1v1H22zM16 22h1v1H16z"/><path fill="#cc9611" d="M17 11h1v1H17zM17 12h1v1H17zM21 17h1v1H21zM22 21h1v1H22zM12 22h1v1H12zM22 22h1v1H22z"/><path fill="#f0f0f0" d="M12 13h1v1H12zM14 14h1v1H14zM23 16h1v1H23zM20 18h1v1H20zM20 19h1v1H20zM12 20h1v1H12zM20 23h1v1H20z"/><path fill="#5434b5" d="M22 14h1v1H22zM15 16h1v1H15zM21 20h1v1H21z"/><path fill="#e6ecf5" d="M12 16h1v1H12zM14 16h1v1H14zM20 16h1v1H20zM22 16h1v1H22z"/><path fill="#060606" d="M13 16h1v1H13z"/><path fill="#040404" d="M21 16h1v1H21z"/><path fill="#89660d" d="M13 18h1v1H13z"/><path fill="#5f470c" d="M15 18h1v1H15z"/><path fill="#b5850f" d="M21 18h1v1H21z"/><path fill="#161001" d="M17 20h2v1H17zM17 21h2v1H17z"/><g fill="#f9da8d"><rect x="15" y="7" width="1" height="1" class="a07"/><rect x="16" y="7" width="1" height="1" class="a04"/><rect x="17" y="7" width="1" height="1" class="a01"/><rect x="18" y="7" width="1" height="1" class="a06"/><rect x="19" y="7" width="1" height="1" class="a03"/><rect x="12" y="8" width="1" height="1" class="a05"/><rect x="13" y="8" width="1" height="1" class="a02"/><rect x="14" y="8" width="1" height="1" class="a07"/><rect x="15" y="8" width="1" height="1" class="a04"/><rect x="19" y="8" width="1" height="1" class="a00"/><rect x="20" y="8" width="1" height="1" class="a05"/><rect x="21" y="8" width="1" height="1" class="a02"/><rect x="22" y="8" width="1" height="1" class="a07"/><rect x="11" y="9" width="1" height="1" class="a05"/><rect x="12" y="9" width="1" height="1" class="a02"/><rect x="22" y="9" width="1" height="1" class="a04"/><rect x="23" y="9" width="1" height="1" class="a01"/><rect x="10" y="10" width="1" height="1" class="a05"/><rect x="11" y="10" width="1" height="1" class="a02"/><rect x="23" y="10" width="1" height="1" class="a06"/><rect x="24" y="10" width="1" height="1" class="a03"/><rect x="9" y="11" width="1" height="1" class="a05"/><rect x="10" y="11" width="1" height="1" class="a02"/><rect x="24" y="11" width="1" height="1" class="a00"/><rect x="25" y="11" width="1" height="1" class="a05"/><rect x="8" y="12" width="1" height="1" class="a05"/><rect x="9" y="12" width="1" height="1" class="a02"/><rect x="25" y="12" width="1" height="1" class="a02"/><rect x="26" y="12" width="1" height="1" class="a07"/><rect x="8" y="13" width="1" height="1" class="a02"/><rect x="26" y="13" width="1" height="1" class="a04"/><rect x="8" y="14" width="1" height="1" class="a07"/><rect x="26" y="14" width="1" height="1" class="a01"/><rect x="7" y="15" width="1" height="1" class="a07"/><rect x="8" y="15" width="1" height="1" class="a04"/><rect x="26" y="15" width="1" height="1" class="a06"/><rect x="27" y="15" width="1" height="1" class="a03"/><rect x="7" y="16" width="1" height="1" class="a04"/><rect x="27" y="16" width="1" height="1" class="a00"/><rect x="7" y="17" width="1" height="1" class="a01"/><rect x="27" y="17" width="1" height="1" class="a05"/><rect x="7" y="18" width="1" height="1" class="a06"/><rect x="27" y="18" width="1" height="1" class="a02"/><rect x="7" y="19" width="1" height="1" class="a03"/><rect x="8" y="19" width="1" height="1" class="a00"/><rect x="26" y="19" width="1" height="1" class="a02"/><rect x="27" y="19" width="1" height="1" class="a07"/><rect x="8" y="20" width="1" height="1" class="a05"/><rect x="26" y="20" width="1" height="1" class="a07"/><rect x="8" y="21" width="1" height="1" class="a02"/><rect x="26" y="21" width="1" height="1" class="a04"/><rect x="8" y="22" width="1" height="1" class="a07"/><rect x="9" y="22" width="1" height="1" class="a04"/><rect x="25" y="22" width="1" height="1" class="a04"/><rect x="26" y="22" width="1" height="1" class="a01"/><rect x="9" y="23" width="1" height="1" class="a01"/><rect x="10" y="23" width="1" height="1" class="a06"/><rect x="24" y="23" width="1" height="1" class="a04"/><rect x="25" y="23" width="1" height="1" class="a01"/><rect x="10" y="24" width="1" height="1" class="a03"/><rect x="11" y="24" width="1" height="1" class="a00"/><rect x="23" y="24" width="1" height="1" class="a04"/><rect x="24" y="24" width="1" height="1" class="a01"/><rect x="11" y="25" width="1" height="1" class="a05"/><rect x="12" y="25" width="1" height="1" class="a02"/><rect x="22" y="25" width="1" height="1" class="a04"/><rect x="23" y="25" width="1" height="1" class="a01"/><rect x="12" y="26" width="1" height="1" class="a07"/><rect x="13" y="26" width="1" height="1" class="a04"/><rect x="14" y="26" width="1" height="1" class="a01"/><rect x="15" y="26" width="1" height="1" class="a06"/><rect x="19" y="26" width="1" height="1" class="a02"/><rect x="20" y="26" width="1" height="1" class="a07"/><rect x="21" y="26" width="1" height="1" class="a04"/><rect x="22" y="26" width="1" height="1" class="a01"/><rect x="15" y="27" width="1" height="1" class="a03"/><rect x="16" y="27" width="1" height="1" class="a00"/><rect x="17" y="27" width="1" height="1" class="a05"/><rect x="18" y="27" width="1" height="1" class="a02"/><rect x="19" y="27" width="1" height="1" class="a07"/></g></svg>