<svg viewBox="0 0 35 35" shape-rendering="crispEdges" xmlns="http://www.w3.org/2000/svg"><style>@keyframes fl{0%,100%{opacity:1}50%{opacity:.34}}.a0{animation:fl 0.9s steps(1,end) infinite}</style><rect width="35" height="35" fill="#0a0a0a"/><path fill="#fe0000" d="M0 0h1v1H0zM2 0h1v1H2zM6 0h2v1H6zM10 0h2v1H10zM14 0h3v1H14zM19 0h5v1H19zM26 0h2v1H26zM30 0h2v1H30zM34 0h1v1H34zM1 1h3v1H1zM6 1h2v1H6zM10 1h4v1H10zM17 1h3v1H17zM22 1h2v1H22zM26 1h2v1H26zM30 1h2v1H30zM33 1h1v1H33zM2 2h1v1H2zM4 2h2v1H4zM8 2h2v1H8zM12 2h2v1H12zM18 2h2v1H18zM22 2h1v1H22zM24 2h2v1H24zM28 2h2v1H28zM32 2h3v1H32zM0 3h2v1H0zM4 3h2v1H4zM8 3h2v1H8zM12 3h6v1H12zM20 3h2v1H20zM24 3h2v1H24zM28 3h2v1H28zM33 3h1v1H33zM0 4h2v1H0zM6 4h2v1H6zM10 4h2v1H10zM16 4h2v1H16zM20 4h2v1H20zM24 4h1v1H24zM26 4h2v1H26zM31 4h2v1H31zM2 5h2v1H2zM6 5h2v1H6zM10 5h3v1H10zM18 5h2v1H18zM22 5h2v1H22zM26 5h3v1H26zM31 5h2v1H31zM2 6h2v1H2zM5 6h1v1H5zM8 6h2v1H8zM13 6h1v1H13zM22 6h2v1H22zM29 6h2v1H29zM33 6h2v1H33zM0 7h2v1H0zM4 7h2v1H4zM8 7h3v1H8zM24 7h3v1H24zM29 7h2v1H29zM33 7h2v1H33zM0 8h2v1H0zM4 8h2v1H4zM7 8h2v1H7zM25 8h4v1H25zM31 8h2v1H31zM2 9h2v1H2zM7 9h2v1H7zM27 9h2v1H27zM31 9h2v1H31zM2 10h3v1H2zM7 10h1v1H7zM27 10h1v1H27zM29 10h2v1H29zM33 10h2v1H33zM0 11h2v1H0zM5 11h2v1H5zM29 11h2v1H29zM33 11h2v1H33zM0 12h3v1H0zM5 12h2v1H5zM29 12h1v1H29zM31 12h3v1H31zM0 13h1v1H0zM3 13h2v1H3zM28 13h1v1H28zM0 14h1v1H0zM3 14h2v1H3zM0 15h3v1H0zM5 15h1v1H5zM1 16h1v1H1zM28 22h2v1H28zM32 22h3v1H32zM28 23h2v1H28zM33 23h2v1H33zM7 24h1v1H7zM27 24h1v1H27zM30 24h3v1H30zM2 25h2v1H2zM6 25h2v1H6zM26 25h2v1H26zM31 25h2v1H31zM2 26h2v1H2zM6 26h4v1H6zM26 26h2v1H26zM29 26h2v1H29zM33 26h2v1H33zM0 27h2v1H0zM4 27h2v1H4zM8 27h3v1H8zM24 27h3v1H24zM29 27h2v1H29zM33 27h2v1H33zM0 28h2v1H0zM4 28h2v1H4zM12 28h1v1H12zM21 28h1v1H21zM25 28h2v1H25zM29 28h1v1H29zM2 29h2v1H2zM6 29h3v1H6zM11 29h2v1H11zM15 29h2v1H15zM2 30h2v1H2zM7 30h2v1H7z"/><g fill="#fe0000"><rect x="15" y="4" width="1" height="1" class="a0"/><rect x="17" y="6" width="1" height="1" class="a0"/><rect x="11" y="7" width="1" height="1" class="a0"/><rect x="23" y="8" width="1" height="1" class="a0"/><rect x="28" y="10" width="1" height="1" class="a0"/><rect x="7" y="14" width="1" height="1" class="a0"/><rect x="11" y="28" width="1" height="1" class="a0"/><rect x="17" y="29" width="1" height="1" class="a0"/></g><g fill="#39ff14"><rect x="9" y="5" width="1" height="1" class="a0"/><rect x="12" y="7" width="1" height="1" class="a0"/><rect x="29" y="8" width="1" height="1" class="a0"/><rect x="2" y="17" width="1" height="1" class="a0"/><rect x="23" y="28" width="1" height="1" class="a0"/><rect x="9" y="29" width="1" height="1" class="a0"/><rect x="14" y="32" width="1" height="1" class="a0"/></g><path fill="#729c10" d="M14 8h1v1H14zM16 8h1v1H16zM18 8h2v1H18zM21 8h1v1H21zM13 9h1v1H13zM22 9h1v1H22zM11 10h1v1H11zM24 10h1v1H24zM10 11h1v1H10zM25 11h1v1H25zM9 13h1v1H9zM26 13h1v1H26zM8 14h1v1H8zM27 14h1v1H27zM8 16h1v1H8zM27 16h1v1H27zM8 18h1v1H8zM27 18h1v1H27zM8 19h1v1H8zM27 19h1v1H27zM8 21h1v1H8zM27 21h1v1H27zM9 22h1v1H9zM26 22h1v1H26zM10 24h1v1H10zM25 24h1v1H25zM11 25h1v1H11zM24 25h1v1H24zM13 26h1v1H13zM22 26h1v1H22zM14 27h1v1H14zM16 27h1v1H16zM18 27h2v1H18zM21 27h1v1H21z"/><path fill="#c79311" d="M15 9h1v1H15zM17 9h1v1H17zM19 9h1v1H19zM22 10h1v1H22zM12 11h1v1H12zM23 11h1v1H23zM11 12h1v1H11zM10 13h1v1H10zM24 13h1v1H24zM25 14h1v1H25zM9 15h1v1H9zM26 16h1v1H26zM9 17h1v1H9zM9 18h1v1H9zM26 18h1v1H26zM26 19h1v1H26zM9 20h1v1H9zM25 21h1v1H25zM10 22h1v1H10zM24 22h1v1H24zM11 23h1v1H11zM12 24h1v1H12zM23 24h1v1H23zM14 25h1v1H14zM20 25h1v1H20zM22 25h1v1H22zM15 26h1v1H15zM17 26h1v1H17zM19 26h1v1H19z"/><path fill="#9d9d9d" d="M14 10h2v1H14zM17 10h2v1H17zM20 10h1v1H20zM14 11h1v1H14zM16 11h4v1H16zM21 11h1v1H21zM13 12h1v1H13zM18 12h2v1H18zM21 12h1v1H21zM16 13h1v1H16zM19 13h1v1H19zM21 13h2v1H21zM10 14h1v1H10zM13 14h2v1H13zM16 14h1v1H16zM21 14h1v1H21zM10 15h2v1H10zM13 15h1v1H13zM15 15h1v1H15zM18 15h1v1H18zM24 15h1v1H24zM10 16h2v1H10zM16 16h2v1H16zM19 16h1v1H19zM11 17h1v1H11zM14 17h1v1H14zM18 17h1v1H18zM22 17h3v1H22zM10 18h1v1H10zM14 18h1v1H14zM16 18h1v1H16zM20 18h1v1H20zM22 18h1v1H22zM10 19h3v1H10zM24 19h1v1H24zM11 20h1v1H11zM24 20h1v1H24zM11 21h2v1H11zM12 22h2v1H12zM19 22h2v1H19zM22 22h1v1H22zM14 23h2v1H14zM17 23h3v1H17zM21 23h1v1H21zM16 24h3v1H16zM20 24h1v1H20z"/><path fill="#6c6c6c" d="M16 10h1v1H16zM13 11h1v1H13zM15 11h1v1H15zM14 12h1v1H14zM20 12h1v1H20zM22 12h1v1H22zM11 13h1v1H11zM20 13h1v1H20zM12 14h1v1H12zM17 14h1v1H17zM23 14h1v1H23zM12 15h1v1H12zM14 15h1v1H14zM16 15h2v1H16zM15 16h1v1H15zM18 16h1v1H18zM23 16h1v1H23zM10 17h1v1H10zM15 17h3v1H15zM19 17h1v1H19zM11 18h1v1H11zM17 18h3v1H17zM23 18h2v1H23zM21 19h1v1H21zM23 19h1v1H23zM10 20h1v1H10zM23 20h1v1H23zM13 21h1v1H13zM20 21h2v1H20zM23 21h1v1H23zM14 22h3v1H14zM13 23h1v1H13zM16 23h1v1H16zM14 24h1v1H14zM19 24h1v1H19z"/><path fill="#cecece" d="M19 10h1v1H19zM20 11h1v1H20zM17 12h1v1H17zM15 13h1v1H15zM17 13h2v1H17zM23 13h1v1H23zM18 14h2v1H18zM22 14h1v1H22zM24 14h1v1H24zM24 16h1v1H24zM21 17h1v1H21zM13 19h1v1H13zM22 19h1v1H22zM13 20h1v1H13zM21 20h1v1H21zM14 21h1v1H14zM22 21h1v1H22zM21 22h1v1H21zM20 23h1v1H20zM15 24h1v1H15z"/><path fill="#8a2be2" d="M12 12h1v1H12zM20 14h1v1H20zM12 17h1v1H12zM17 22h2v1H17z"/><path fill="#5434b5" d="M15 12h1v1H15z"/><path fill="#16d34c" d="M16 12h1v1H16zM31 13h3v1H31zM31 14h1v1H31zM34 14h1v1H34zM30 15h2v1H30zM34 15h1v1H34zM2 16h1v1H2zM5 16h1v1H5zM30 16h2v1H30zM34 16h1v1H34zM1 17h1v1H1zM3 17h2v1H3zM13 17h1v1H13zM20 17h1v1H20zM30 17h2v1H30zM33 17h1v1H33zM0 18h1v1H0zM3 18h2v1H3zM29 18h1v1H29zM32 18h2v1H32zM0 19h1v1H0zM3 19h2v1H3zM29 19h1v1H29zM32 19h3v1H32zM0 20h1v1H0zM3 20h1v1H3zM30 20h2v1H30zM34 20h1v1H34zM1 21h3v1H1zM6 21h1v1H6zM30 21h2v1H30zM34 21h1v1H34zM1 22h3v1H1zM5 22h1v1H5zM0 23h2v1H0zM4 23h2v1H4zM0 24h2v1H0zM4 24h2v1H4zM31 28h2v1H31zM22 29h3v1H22zM27 29h2v1H27zM31 29h2v1H31zM10 30h1v1H10zM13 30h2v1H13zM17 30h3v1H17zM23 30h2v1H23zM27 30h2v1H27zM33 30h2v1H33zM1 31h1v1H1zM5 31h2v1H5zM9 31h2v1H9zM13 31h2v1H13zM17 31h6v1H17zM25 31h2v1H25zM29 31h2v1H29zM33 31h2v1H33zM0 32h3v1H0zM5 32h2v1H5zM9 32h2v1H9zM12 32h1v1H12zM15 32h2v1H15zM21 32h2v1H21zM25 32h2v1H25zM29 32h2v1H29zM32 32h1v1H32zM1 33h1v1H1zM3 33h2v1H3zM7 33h2v1H7zM11 33h2v1H11zM15 33h3v1H15zM21 33h4v1H21zM27 33h2v1H27zM31 33h3v1H31zM0 34h1v1H0zM3 34h2v1H3zM7 34h2v1H7zM11 34h5v1H11zM18 34h3v1H18zM23 34h2v1H23zM27 34h2v1H27zM32 34h1v1H32zM34 34h1v1H34z"/><path fill="#040404" d="M12 13h2v1H12zM11 14h1v1H11zM22 15h2v1H22zM21 16h1v1H21z"/><path fill="#050505" d="M14 13h1v1H14zM19 15h1v1H19z"/><path fill="#060606" d="M15 14h1v1H15zM20 15h1v1H20zM13 16h1v1H13z"/><path fill="#030303" d="M21 15h1v1H21z"/><path fill="#e6ecf5" d="M12 16h1v1H12zM14 16h1v1H14zM20 16h1v1H20zM22 16h1v1H22z"/><path fill="#663ee0" d="M12 18h1v1H12zM12 20h1v1H12z"/><path fill="#b7b7b7" d="M13 18h1v1H13z"/><path fill="#4a2ea1" d="M15 18h1v1H15z"/><path fill="#8b8b8b" d="M21 18h1v1H21z"/><path fill="#1d1d1d" d="M14 19h7v1H14zM14 20h1v1H14zM20 20h1v1H20zM15 21h5v1H15z"/><path fill="#f4f7fb" d="M15 20h1v1H15z"/><path fill="#d6dde8" d="M16 20h1v1H16z"/><path fill="#e2e8f0" d="M17 20h1v1H17z"/><path fill="#f8fafc" d="M18 20h1v1H18z"/><path fill="#ecf1f7" d="M19 20h1v1H19z"/><path fill="#ffffff" d="M22 20h1v1H22z"/></svg>